<svg xmlns="http://www.w3.org/2000/svg" viewBox="0 0 1200 520" role="img" aria-label="Text, images and sensor data flowing through a neural network and becoming a digital model of a building">
<defs>
<linearGradient id="bg" x1="0" y1="0" x2="1" y2="1"><stop offset="0" stop-color="#f6fbf7"/><stop offset="1" stop-color="#e6f4ea"/></linearGradient>
<linearGradient id="flow" x1="0" x2="1"><stop offset="0" stop-color="#9fd3b0" stop-opacity=".2"/><stop offset=".5" stop-color="#22a055" stop-opacity=".9"/><stop offset="1" stop-color="#15803d" stop-opacity=".3"/></linearGradient>
<radialGradient id="nglow"><stop offset="0" stop-color="#22a055" stop-opacity=".45"/><stop offset="1" stop-color="#22a055" stop-opacity="0"/></radialGradient>
<pattern id="grid" width="24" height="24" patternUnits="userSpaceOnUse"><path d="M24 0H0V24" fill="none" stroke="#9fd3b0" stroke-width=".6" opacity=".35"/></pattern>
<style>
.f{font:600 15px "DM Sans","Helvetica Neue",Arial,sans-serif;fill:#1d2a22}
.m{font:500 13px "JetBrains Mono",Menlo,monospace;fill:#15803d}
.cap{font:700 12px "DM Sans",Arial,sans-serif;letter-spacing:.14em;fill:#15803d}
.dash{stroke-dasharray:6 8;animation:mv 3s linear infinite}
@keyframes mv{to{stroke-dashoffset:-28}}
.blink{animation:bl 2.6s ease-in-out infinite}
@keyframes bl{0%,100%{opacity:.25}50%{opacity:1}}
@media (prefers-reduced-motion:reduce){.dash,.blink{animation:none}}
</style></defs>
<rect width="1200" height="520" rx="24" fill="url(#bg)"/><rect width="1200" height="520" rx="24" fill="url(#grid)"/>
<text class="cap" x="70" y="62">DATA</text>
<g transform="translate(60 84)"><rect width="210" height="104" rx="14" fill="#fff" stroke="#9fd3b0"/><text class="f" x="16" y="28">Reports &amp; documents</text><rect x="16" y="44" width="44" height="12" rx="6" fill="#22a055"/><rect x="66" y="44" width="40" height="12" rx="6" fill="#9fd3b0"/><rect x="112" y="44" width="36" height="12" rx="6" fill="#9fd3b0"/><rect x="154" y="44" width="30" height="12" rx="6" fill="#22a055"/><rect x="16" y="66" width="170" height="7" rx="3.5" fill="#9fd3b0" opacity=".55"/><rect x="16" y="80" width="120" height="7" rx="3.5" fill="#9fd3b0" opacity=".55"/><text class="m" x="150" y="96">LLM</text></g>
<g transform="translate(60 206)"><rect width="210" height="124" rx="14" fill="#fff" stroke="#9fd3b0"/><text class="f" x="16" y="28">Images &amp; scans</text><rect x="16" y="40" width="178" height="70" rx="8" fill="#e9f6ee"/><path d="M16 110l46-38 30 22 34-30 68 46z" fill="#9fd3b0" opacity=".7"/><circle cx="160" cy="58" r="9" fill="#fff"/><rect x="60" y="62" width="60" height="40" rx="3" fill="none" stroke="#15803d" stroke-width="2"/><text class="m" x="62" y="57" style="font-size:11px">crack 0.94</text><text class="m" x="160" y="106" style="font-size:12px;fill:#fff">VLM</text></g>
<g transform="translate(60 348)"><rect width="210" height="96" rx="14" fill="#fff" stroke="#9fd3b0"/><text class="f" x="16" y="28">Sensors, LiDAR, thermal</text><polyline points="16,66.0 22,63.67925704760192 28,67.20801503838088 34,69.16149742627893 40,68.34979639221724 46,64.38044027235229 52,58.01017811648264 58,57.07971491103096 64,45.97609411344961 70,44.77431709655213 76,48.38042101851755 82,56.0434561515793 88,65.48450242634023 94,73.64486390366861 100,83.787028209786 106,76.51487116829925 112,70.29712307683734 118,61.27916503330802 124,52.46481843502353 130,46.60837461264903 136,45.262990772162446 142,54.34343776188305 148,54.32809643611223 154,60.958721668269135 160,66.11467567904349 166,68.51006457687453 172,67.9809340414937 178,65.32517825472216 184,67.83648044010954 190,58.76394703257346" fill="none" stroke="#22a055" stroke-width="2.2" stroke-linecap="round"/></g>
<text class="cap" x="430" y="62">LEARN</text>
<path d="M272 136 C330 136 340 192.0 400 192.0" fill="none" stroke="#9fd3b0" stroke-width="1" opacity=".55"/>
<path d="M272 136 C330 136 340 244.0 400 244.0" fill="none" stroke="#9fd3b0" stroke-width="1" opacity=".55"/>
<path d="M272 136 C330 136 340 296.0 400 296.0" fill="none" stroke="#9fd3b0" stroke-width="1" opacity=".55"/>
<path d="M272 136 C330 136 340 348.0 400 348.0" fill="none" stroke="#9fd3b0" stroke-width="1" opacity=".55"/>
<path d="M272 268 C330 268 340 192.0 400 192.0" fill="none" stroke="#9fd3b0" stroke-width="1" opacity=".55"/>
<path d="M272 268 C330 268 340 244.0 400 244.0" fill="none" stroke="#9fd3b0" stroke-width="1" opacity=".55"/>
<path d="M272 268 C330 268 340 296.0 400 296.0" fill="none" stroke="#9fd3b0" stroke-width="1" opacity=".55"/>
<path d="M272 268 C330 268 340 348.0 400 348.0" fill="none" stroke="#9fd3b0" stroke-width="1" opacity=".55"/>
<path d="M272 396 C330 396 340 192.0 400 192.0" fill="none" stroke="#9fd3b0" stroke-width="1" opacity=".55"/>
<path d="M272 396 C330 396 340 244.0 400 244.0" fill="none" stroke="#9fd3b0" stroke-width="1" opacity=".55"/>
<path d="M272 396 C330 396 340 296.0 400 296.0" fill="none" stroke="#9fd3b0" stroke-width="1" opacity=".55"/>
<path d="M272 396 C330 396 340 348.0 400 348.0" fill="none" stroke="#9fd3b0" stroke-width="1" opacity=".55"/>
<line x1="400" y1="192.0" x2="480" y2="140.0" stroke="#9fd3b0" stroke-width="0.8" opacity="0.45"/>
<line x1="400" y1="192.0" x2="480" y2="192.0" stroke="#9fd3b0" stroke-width="0.8" opacity="0.45"/>
<line x1="400" y1="192.0" x2="480" y2="244.0" stroke="#9fd3b0" stroke-width="0.8" opacity="0.45"/>
<line x1="400" y1="192.0" x2="480" y2="296.0" stroke="#9fd3b0" stroke-width="0.8" opacity="0.45"/>
<line x1="400" y1="192.0" x2="480" y2="348.0" stroke="#9fd3b0" stroke-width="0.8" opacity="0.45"/>
<line x1="400" y1="192.0" x2="480" y2="400.0" stroke="#9fd3b0" stroke-width="0.8" opacity="0.45"/>
<line x1="400" y1="244.0" x2="480" y2="140.0" stroke="#9fd3b0" stroke-width="0.8" opacity="0.45"/>
<line x1="400" y1="244.0" x2="480" y2="192.0" stroke="#9fd3b0" stroke-width="0.8" opacity="0.45"/>
<line x1="400" y1="244.0" x2="480" y2="244.0" stroke="#9fd3b0" stroke-width="0.8" opacity="0.45"/>
<line x1="400" y1="244.0" x2="480" y2="296.0" stroke="#9fd3b0" stroke-width="0.8" opacity="0.45"/>
<line x1="400" y1="244.0" x2="480" y2="348.0" stroke="#9fd3b0" stroke-width="0.8" opacity="0.45"/>
<line x1="400" y1="244.0" x2="480" y2="400.0" stroke="#9fd3b0" stroke-width="0.8" opacity="0.45"/>
<line x1="400" y1="296.0" x2="480" y2="140.0" stroke="#9fd3b0" stroke-width="0.8" opacity="0.45"/>
<line x1="400" y1="296.0" x2="480" y2="192.0" stroke="#22a055" stroke-width="1.6" opacity="0.9"/>
<line x1="400" y1="296.0" x2="480" y2="244.0" stroke="#9fd3b0" stroke-width="0.8" opacity="0.45"/>
<line x1="400" y1="296.0" x2="480" y2="296.0" stroke="#9fd3b0" stroke-width="0.8" opacity="0.45"/>
<line x1="400" y1="296.0" x2="480" y2="348.0" stroke="#9fd3b0" stroke-width="0.8" opacity="0.45"/>
<line x1="400" y1="296.0" x2="480" y2="400.0" stroke="#22a055" stroke-width="1.6" opacity="0.9"/>
<line x1="400" y1="348.0" x2="480" y2="140.0" stroke="#9fd3b0" stroke-width="0.8" opacity="0.45"/>
<line x1="400" y1="348.0" x2="480" y2="192.0" stroke="#9fd3b0" stroke-width="0.8" opacity="0.45"/>
<line x1="400" y1="348.0" x2="480" y2="244.0" stroke="#22a055" stroke-width="1.6" opacity="0.9"/>
<line x1="400" y1="348.0" x2="480" y2="296.0" stroke="#9fd3b0" stroke-width="0.8" opacity="0.45"/>
<line x1="400" y1="348.0" x2="480" y2="348.0" stroke="#22a055" stroke-width="1.6" opacity="0.9"/>
<line x1="400" y1="348.0" x2="480" y2="400.0" stroke="#9fd3b0" stroke-width="0.8" opacity="0.45"/>
<line x1="480" y1="140.0" x2="560" y2="114.0" stroke="#9fd3b0" stroke-width="0.8" opacity="0.45"/>
<line x1="480" y1="140.0" x2="560" y2="166.0" stroke="#9fd3b0" stroke-width="0.8" opacity="0.45"/>
<line x1="480" y1="140.0" x2="560" y2="218.0" stroke="#9fd3b0" stroke-width="0.8" opacity="0.45"/>
<line x1="480" y1="140.0" x2="560" y2="270.0" stroke="#22a055" stroke-width="1.6" opacity="0.9"/>
<line x1="480" y1="140.0" x2="560" y2="322.0" stroke="#9fd3b0" stroke-width="0.8" opacity="0.45"/>
<line x1="480" y1="140.0" x2="560" y2="374.0" stroke="#9fd3b0" stroke-width="0.8" opacity="0.45"/>
<line x1="480" y1="140.0" x2="560" y2="426.0" stroke="#9fd3b0" stroke-width="0.8" opacity="0.45"/>
<line x1="480" y1="192.0" x2="560" y2="114.0" stroke="#9fd3b0" stroke-width="0.8" opacity="0.45"/>
<line x1="480" y1="192.0" x2="560" y2="166.0" stroke="#9fd3b0" stroke-width="0.8" opacity="0.45"/>
<line x1="480" y1="192.0" x2="560" y2="218.0" stroke="#9fd3b0" stroke-width="0.8" opacity="0.45"/>
<line x1="480" y1="192.0" x2="560" y2="270.0" stroke="#9fd3b0" stroke-width="0.8" opacity="0.45"/>
<line x1="480" y1="192.0" x2="560" y2="322.0" stroke="#9fd3b0" stroke-width="0.8" opacity="0.45"/>
<line x1="480" y1="192.0" x2="560" y2="374.0" stroke="#9fd3b0" stroke-width="0.8" opacity="0.45"/>
<line x1="480" y1="192.0" x2="560" y2="426.0" stroke="#9fd3b0" stroke-width="0.8" opacity="0.45"/>
<line x1="480" y1="244.0" x2="560" y2="114.0" stroke="#9fd3b0" stroke-width="0.8" opacity="0.45"/>
<line x1="480" y1="244.0" x2="560" y2="166.0" stroke="#9fd3b0" stroke-width="0.8" opacity="0.45"/>
<line x1="480" y1="244.0" x2="560" y2="218.0" stroke="#9fd3b0" stroke-width="0.8" opacity="0.45"/>
<line x1="480" y1="244.0" x2="560" y2="270.0" stroke="#9fd3b0" stroke-width="0.8" opacity="0.45"/>
<line x1="480" y1="244.0" x2="560" y2="322.0" stroke="#9fd3b0" stroke-width="0.8" opacity="0.45"/>
<line x1="480" y1="244.0" x2="560" y2="374.0" stroke="#9fd3b0" stroke-width="0.8" opacity="0.45"/>
<line x1="480" y1="244.0" x2="560" y2="426.0" stroke="#9fd3b0" stroke-width="0.8" opacity="0.45"/>
<line x1="480" y1="296.0" x2="560" y2="114.0" stroke="#9fd3b0" stroke-width="0.8" opacity="0.45"/>
<line x1="480" y1="296.0" x2="560" y2="166.0" stroke="#9fd3b0" stroke-width="0.8" opacity="0.45"/>
<line x1="480" y1="296.0" x2="560" y2="218.0" stroke="#22a055" stroke-width="1.6" opacity="0.9"/>
<line x1="480" y1="296.0" x2="560" y2="270.0" stroke="#9fd3b0" stroke-width="0.8" opacity="0.45"/>
<line x1="480" y1="296.0" x2="560" y2="322.0" stroke="#9fd3b0" stroke-width="0.8" opacity="0.45"/>
<line x1="480" y1="296.0" x2="560" y2="374.0" stroke="#22a055" stroke-width="1.6" opacity="0.9"/>
<line x1="480" y1="296.0" x2="560" y2="426.0" stroke="#9fd3b0" stroke-width="0.8" opacity="0.45"/>
<line x1="480" y1="348.0" x2="560" y2="114.0" stroke="#9fd3b0" stroke-width="0.8" opacity="0.45"/>
<line x1="480" y1="348.0" x2="560" y2="166.0" stroke="#9fd3b0" stroke-width="0.8" opacity="0.45"/>
<line x1="480" y1="348.0" x2="560" y2="218.0" stroke="#9fd3b0" stroke-width="0.8" opacity="0.45"/>
<line x1="480" y1="348.0" x2="560" y2="270.0" stroke="#9fd3b0" stroke-width="0.8" opacity="0.45"/>
<line x1="480" y1="348.0" x2="560" y2="322.0" stroke="#9fd3b0" stroke-width="0.8" opacity="0.45"/>
<line x1="480" y1="348.0" x2="560" y2="374.0" stroke="#9fd3b0" stroke-width="0.8" opacity="0.45"/>
<line x1="480" y1="348.0" x2="560" y2="426.0" stroke="#9fd3b0" stroke-width="0.8" opacity="0.45"/>
<line x1="480" y1="400.0" x2="560" y2="114.0" stroke="#9fd3b0" stroke-width="0.8" opacity="0.45"/>
<line x1="480" y1="400.0" x2="560" y2="166.0" stroke="#22a055" stroke-width="1.6" opacity="0.9"/>
<line x1="480" y1="400.0" x2="560" y2="218.0" stroke="#9fd3b0" stroke-width="0.8" opacity="0.45"/>
<line x1="480" y1="400.0" x2="560" y2="270.0" stroke="#9fd3b0" stroke-width="0.8" opacity="0.45"/>
<line x1="480" y1="400.0" x2="560" y2="322.0" stroke="#9fd3b0" stroke-width="0.8" opacity="0.45"/>
<line x1="480" y1="400.0" x2="560" y2="374.0" stroke="#9fd3b0" stroke-width="0.8" opacity="0.45"/>
<line x1="480" y1="400.0" x2="560" y2="426.0" stroke="#9fd3b0" stroke-width="0.8" opacity="0.45"/>
<line x1="560" y1="114.0" x2="640" y2="140.0" stroke="#22a055" stroke-width="1.6" opacity="0.9"/>
<line x1="560" y1="114.0" x2="640" y2="192.0" stroke="#22a055" stroke-width="1.6" opacity="0.9"/>
<line x1="560" y1="114.0" x2="640" y2="244.0" stroke="#9fd3b0" stroke-width="0.8" opacity="0.45"/>
<line x1="560" y1="114.0" x2="640" y2="296.0" stroke="#9fd3b0" stroke-width="0.8" opacity="0.45"/>
<line x1="560" y1="114.0" x2="640" y2="348.0" stroke="#9fd3b0" stroke-width="0.8" opacity="0.45"/>
<line x1="560" y1="114.0" x2="640" y2="400.0" stroke="#9fd3b0" stroke-width="0.8" opacity="0.45"/>
<line x1="560" y1="166.0" x2="640" y2="140.0" stroke="#9fd3b0" stroke-width="0.8" opacity="0.45"/>
<line x1="560" y1="166.0" x2="640" y2="192.0" stroke="#22a055" stroke-width="1.6" opacity="0.9"/>
<line x1="560" y1="166.0" x2="640" y2="244.0" stroke="#22a055" stroke-width="1.6" opacity="0.9"/>
<line x1="560" y1="166.0" x2="640" y2="296.0" stroke="#9fd3b0" stroke-width="0.8" opacity="0.45"/>
<line x1="560" y1="166.0" x2="640" y2="348.0" stroke="#9fd3b0" stroke-width="0.8" opacity="0.45"/>
<line x1="560" y1="166.0" x2="640" y2="400.0" stroke="#9fd3b0" stroke-width="0.8" opacity="0.45"/>
<line x1="560" y1="218.0" x2="640" y2="140.0" stroke="#9fd3b0" stroke-width="0.8" opacity="0.45"/>
<line x1="560" y1="218.0" x2="640" y2="192.0" stroke="#9fd3b0" stroke-width="0.8" opacity="0.45"/>
<line x1="560" y1="218.0" x2="640" y2="244.0" stroke="#9fd3b0" stroke-width="0.8" opacity="0.45"/>
<line x1="560" y1="218.0" x2="640" y2="296.0" stroke="#9fd3b0" stroke-width="0.8" opacity="0.45"/>
<line x1="560" y1="218.0" x2="640" y2="348.0" stroke="#9fd3b0" stroke-width="0.8" opacity="0.45"/>
<line x1="560" y1="218.0" x2="640" y2="400.0" stroke="#9fd3b0" stroke-width="0.8" opacity="0.45"/>
<line x1="560" y1="270.0" x2="640" y2="140.0" stroke="#9fd3b0" stroke-width="0.8" opacity="0.45"/>
<line x1="560" y1="270.0" x2="640" y2="192.0" stroke="#9fd3b0" stroke-width="0.8" opacity="0.45"/>
<line x1="560" y1="270.0" x2="640" y2="244.0" stroke="#9fd3b0" stroke-width="0.8" opacity="0.45"/>
<line x1="560" y1="270.0" x2="640" y2="296.0" stroke="#22a055" stroke-width="1.6" opacity="0.9"/>
<line x1="560" y1="270.0" x2="640" y2="348.0" stroke="#9fd3b0" stroke-width="0.8" opacity="0.45"/>
<line x1="560" y1="270.0" x2="640" y2="400.0" stroke="#9fd3b0" stroke-width="0.8" opacity="0.45"/>
<line x1="560" y1="322.0" x2="640" y2="140.0" stroke="#9fd3b0" stroke-width="0.8" opacity="0.45"/>
<line x1="560" y1="322.0" x2="640" y2="192.0" stroke="#22a055" stroke-width="1.6" opacity="0.9"/>
<line x1="560" y1="322.0" x2="640" y2="244.0" stroke="#22a055" stroke-width="1.6" opacity="0.9"/>
<line x1="560" y1="322.0" x2="640" y2="296.0" stroke="#22a055" stroke-width="1.6" opacity="0.9"/>
<line x1="560" y1="322.0" x2="640" y2="348.0" stroke="#9fd3b0" stroke-width="0.8" opacity="0.45"/>
<line x1="560" y1="322.0" x2="640" y2="400.0" stroke="#9fd3b0" stroke-width="0.8" opacity="0.45"/>
<line x1="560" y1="374.0" x2="640" y2="140.0" stroke="#9fd3b0" stroke-width="0.8" opacity="0.45"/>
<line x1="560" y1="374.0" x2="640" y2="192.0" stroke="#22a055" stroke-width="1.6" opacity="0.9"/>
<line x1="560" y1="374.0" x2="640" y2="244.0" stroke="#22a055" stroke-width="1.6" opacity="0.9"/>
<line x1="560" y1="374.0" x2="640" y2="296.0" stroke="#9fd3b0" stroke-width="0.8" opacity="0.45"/>
<line x1="560" y1="374.0" x2="640" y2="348.0" stroke="#9fd3b0" stroke-width="0.8" opacity="0.45"/>
<line x1="560" y1="374.0" x2="640" y2="400.0" stroke="#9fd3b0" stroke-width="0.8" opacity="0.45"/>
<line x1="560" y1="426.0" x2="640" y2="140.0" stroke="#9fd3b0" stroke-width="0.8" opacity="0.45"/>
<line x1="560" y1="426.0" x2="640" y2="192.0" stroke="#9fd3b0" stroke-width="0.8" opacity="0.45"/>
<line x1="560" y1="426.0" x2="640" y2="244.0" stroke="#9fd3b0" stroke-width="0.8" opacity="0.45"/>
<line x1="560" y1="426.0" x2="640" y2="296.0" stroke="#9fd3b0" stroke-width="0.8" opacity="0.45"/>
<line x1="560" y1="426.0" x2="640" y2="348.0" stroke="#9fd3b0" stroke-width="0.8" opacity="0.45"/>
<line x1="560" y1="426.0" x2="640" y2="400.0" stroke="#9fd3b0" stroke-width="0.8" opacity="0.45"/>
<line x1="640" y1="140.0" x2="720" y2="192.0" stroke="#9fd3b0" stroke-width="0.8" opacity="0.45"/>
<line x1="640" y1="140.0" x2="720" y2="244.0" stroke="#9fd3b0" stroke-width="0.8" opacity="0.45"/>
<line x1="640" y1="140.0" x2="720" y2="296.0" stroke="#22a055" stroke-width="1.6" opacity="0.9"/>
<line x1="640" y1="140.0" x2="720" y2="348.0" stroke="#9fd3b0" stroke-width="0.8" opacity="0.45"/>
<line x1="640" y1="192.0" x2="720" y2="192.0" stroke="#9fd3b0" stroke-width="0.8" opacity="0.45"/>
<line x1="640" y1="192.0" x2="720" y2="244.0" stroke="#9fd3b0" stroke-width="0.8" opacity="0.45"/>
<line x1="640" y1="192.0" x2="720" y2="296.0" stroke="#9fd3b0" stroke-width="0.8" opacity="0.45"/>
<line x1="640" y1="192.0" x2="720" y2="348.0" stroke="#9fd3b0" stroke-width="0.8" opacity="0.45"/>
<line x1="640" y1="244.0" x2="720" y2="192.0" stroke="#22a055" stroke-width="1.6" opacity="0.9"/>
<line x1="640" y1="244.0" x2="720" y2="244.0" stroke="#9fd3b0" stroke-width="0.8" opacity="0.45"/>
<line x1="640" y1="244.0" x2="720" y2="296.0" stroke="#22a055" stroke-width="1.6" opacity="0.9"/>
<line x1="640" y1="244.0" x2="720" y2="348.0" stroke="#9fd3b0" stroke-width="0.8" opacity="0.45"/>
<line x1="640" y1="296.0" x2="720" y2="192.0" stroke="#9fd3b0" stroke-width="0.8" opacity="0.45"/>
<line x1="640" y1="296.0" x2="720" y2="244.0" stroke="#9fd3b0" stroke-width="0.8" opacity="0.45"/>
<line x1="640" y1="296.0" x2="720" y2="296.0" stroke="#9fd3b0" stroke-width="0.8" opacity="0.45"/>
<line x1="640" y1="296.0" x2="720" y2="348.0" stroke="#9fd3b0" stroke-width="0.8" opacity="0.45"/>
<line x1="640" y1="348.0" x2="720" y2="192.0" stroke="#9fd3b0" stroke-width="0.8" opacity="0.45"/>
<line x1="640" y1="348.0" x2="720" y2="244.0" stroke="#9fd3b0" stroke-width="0.8" opacity="0.45"/>
<line x1="640" y1="348.0" x2="720" y2="296.0" stroke="#9fd3b0" stroke-width="0.8" opacity="0.45"/>
<line x1="640" y1="348.0" x2="720" y2="348.0" stroke="#9fd3b0" stroke-width="0.8" opacity="0.45"/>
<line x1="640" y1="400.0" x2="720" y2="192.0" stroke="#9fd3b0" stroke-width="0.8" opacity="0.45"/>
<line x1="640" y1="400.0" x2="720" y2="244.0" stroke="#9fd3b0" stroke-width="0.8" opacity="0.45"/>
<line x1="640" y1="400.0" x2="720" y2="296.0" stroke="#9fd3b0" stroke-width="0.8" opacity="0.45"/>
<line x1="640" y1="400.0" x2="720" y2="348.0" stroke="#9fd3b0" stroke-width="0.8" opacity="0.45"/>
<circle cx="400" cy="192.0" r="22" fill="url(#nglow)" class="blink" style="animation-delay:0.00s"/>
<circle cx="400" cy="192.0" r="9" fill="#fff" stroke="#15803d" stroke-width="2.2"/>
<circle cx="400" cy="244.0" r="22" fill="url(#nglow)" class="blink" style="animation-delay:0.21s"/>
<circle cx="400" cy="244.0" r="9" fill="#fff" stroke="#15803d" stroke-width="2.2"/>
<circle cx="400" cy="296.0" r="22" fill="url(#nglow)" class="blink" style="animation-delay:0.42s"/>
<circle cx="400" cy="296.0" r="9" fill="#fff" stroke="#15803d" stroke-width="2.2"/>
<circle cx="400" cy="348.0" r="22" fill="url(#nglow)" class="blink" style="animation-delay:0.63s"/>
<circle cx="400" cy="348.0" r="9" fill="#fff" stroke="#15803d" stroke-width="2.2"/>
<circle cx="480" cy="140.0" r="22" fill="url(#nglow)" class="blink" style="animation-delay:0.35s"/>
<circle cx="480" cy="140.0" r="9" fill="#fff" stroke="#15803d" stroke-width="2.2"/>
<circle cx="480" cy="192.0" r="22" fill="url(#nglow)" class="blink" style="animation-delay:0.56s"/>
<circle cx="480" cy="192.0" r="9" fill="#fff" stroke="#15803d" stroke-width="2.2"/>
<circle cx="480" cy="244.0" r="22" fill="url(#nglow)" class="blink" style="animation-delay:0.77s"/>
<circle cx="480" cy="244.0" r="9" fill="#fff" stroke="#15803d" stroke-width="2.2"/>
<circle cx="480" cy="296.0" r="22" fill="url(#nglow)" class="blink" style="animation-delay:0.98s"/>
<circle cx="480" cy="296.0" r="9" fill="#fff" stroke="#15803d" stroke-width="2.2"/>
<circle cx="480" cy="348.0" r="22" fill="url(#nglow)" class="blink" style="animation-delay:1.19s"/>
<circle cx="480" cy="348.0" r="9" fill="#fff" stroke="#15803d" stroke-width="2.2"/>
<circle cx="480" cy="400.0" r="22" fill="url(#nglow)" class="blink" style="animation-delay:1.40s"/>
<circle cx="480" cy="400.0" r="9" fill="#fff" stroke="#15803d" stroke-width="2.2"/>
<circle cx="560" cy="114.0" r="22" fill="url(#nglow)" class="blink" style="animation-delay:0.70s"/>
<circle cx="560" cy="114.0" r="9" fill="#fff" stroke="#15803d" stroke-width="2.2"/>
<circle cx="560" cy="166.0" r="22" fill="url(#nglow)" class="blink" style="animation-delay:0.91s"/>
<circle cx="560" cy="166.0" r="9" fill="#fff" stroke="#15803d" stroke-width="2.2"/>
<circle cx="560" cy="218.0" r="22" fill="url(#nglow)" class="blink" style="animation-delay:1.12s"/>
<circle cx="560" cy="218.0" r="9" fill="#fff" stroke="#15803d" stroke-width="2.2"/>
<circle cx="560" cy="270.0" r="22" fill="url(#nglow)" class="blink" style="animation-delay:1.33s"/>
<circle cx="560" cy="270.0" r="9" fill="#fff" stroke="#15803d" stroke-width="2.2"/>
<circle cx="560" cy="322.0" r="22" fill="url(#nglow)" class="blink" style="animation-delay:1.54s"/>
<circle cx="560" cy="322.0" r="9" fill="#fff" stroke="#15803d" stroke-width="2.2"/>
<circle cx="560" cy="374.0" r="22" fill="url(#nglow)" class="blink" style="animation-delay:1.75s"/>
<circle cx="560" cy="374.0" r="9" fill="#fff" stroke="#15803d" stroke-width="2.2"/>
<circle cx="560" cy="426.0" r="22" fill="url(#nglow)" class="blink" style="animation-delay:1.96s"/>
<circle cx="560" cy="426.0" r="9" fill="#fff" stroke="#15803d" stroke-width="2.2"/>
<circle cx="640" cy="140.0" r="22" fill="url(#nglow)" class="blink" style="animation-delay:1.05s"/>
<circle cx="640" cy="140.0" r="9" fill="#fff" stroke="#15803d" stroke-width="2.2"/>
<circle cx="640" cy="192.0" r="22" fill="url(#nglow)" class="blink" style="animation-delay:1.26s"/>
<circle cx="640" cy="192.0" r="9" fill="#fff" stroke="#15803d" stroke-width="2.2"/>
<circle cx="640" cy="244.0" r="22" fill="url(#nglow)" class="blink" style="animation-delay:1.47s"/>
<circle cx="640" cy="244.0" r="9" fill="#fff" stroke="#15803d" stroke-width="2.2"/>
<circle cx="640" cy="296.0" r="22" fill="url(#nglow)" class="blink" style="animation-delay:1.68s"/>
<circle cx="640" cy="296.0" r="9" fill="#fff" stroke="#15803d" stroke-width="2.2"/>
<circle cx="640" cy="348.0" r="22" fill="url(#nglow)" class="blink" style="animation-delay:1.89s"/>
<circle cx="640" cy="348.0" r="9" fill="#fff" stroke="#15803d" stroke-width="2.2"/>
<circle cx="640" cy="400.0" r="22" fill="url(#nglow)" class="blink" style="animation-delay:2.10s"/>
<circle cx="640" cy="400.0" r="9" fill="#fff" stroke="#15803d" stroke-width="2.2"/>
<circle cx="720" cy="192.0" r="22" fill="url(#nglow)" class="blink" style="animation-delay:1.40s"/>
<circle cx="720" cy="192.0" r="9" fill="#fff" stroke="#15803d" stroke-width="2.2"/>
<circle cx="720" cy="244.0" r="22" fill="url(#nglow)" class="blink" style="animation-delay:1.61s"/>
<circle cx="720" cy="244.0" r="9" fill="#fff" stroke="#15803d" stroke-width="2.2"/>
<circle cx="720" cy="296.0" r="22" fill="url(#nglow)" class="blink" style="animation-delay:1.82s"/>
<circle cx="720" cy="296.0" r="9" fill="#fff" stroke="#15803d" stroke-width="2.2"/>
<circle cx="720" cy="348.0" r="22" fill="url(#nglow)" class="blink" style="animation-delay:2.03s"/>
<circle cx="720" cy="348.0" r="9" fill="#fff" stroke="#15803d" stroke-width="2.2"/>
<path class="dash" d="M732 270 C800 270 800 270 846 270" fill="none" stroke="#15803d" stroke-width="2.5"/>
<path d="M846 262l12 8-12 8z" fill="#15803d"/>
<text class="cap" x="880" y="62">UNDERSTAND &amp; ACT</text>
<line x1="892.0" y1="452.0" x2="892.0" y2="118.0" stroke="#1d2a22" stroke-width="3" opacity=".75"/>
<line x1="852.0" y1="118.0" x2="1092.0" y2="118.0" stroke="#1d2a22" stroke-width="3" opacity=".75"/>
<line x1="1062.0" y1="118.0" x2="1062.0" y2="188.0" stroke="#1d2a22" stroke-width="1.5"/>
<rect x="1048.0" y="188.0" width="28" height="14" rx="2" fill="#22a055"/>
<polygon points="1000.0,446.0 1112.0,381.2 1028.0,332.6 916.0,397.4" fill="#e9f6ee" stroke="#9fd3b0"/>
<polygon points="1000.0,446.0 1084.0,397.4 1084.0,181.4 1000.0,230.0" fill="#fff" stroke="#15803d" stroke-width="2"/>
<polygon points="1000.0,446.0 944.0,413.6 944.0,197.6 1000.0,230.0" fill="#f3faf5" stroke="#15803d" stroke-width="2"/>
<polygon points="1000.0,230.0 1084.0,181.4 1028.0,149.0 944.0,197.6" fill="#e9f6ee" stroke="#15803d" stroke-width="2"/>
<polyline points="944.0,377.6 1000.0,410.0 1084.0,361.4" fill="none" stroke="#9fd3b0" stroke-width="1.2"/>
<polyline points="944.0,341.6 1000.0,374.0 1084.0,325.4" fill="none" stroke="#9fd3b0" stroke-width="1.2"/>
<polyline points="944.0,305.6 1000.0,338.0 1084.0,289.4" fill="none" stroke="#9fd3b0" stroke-width="1.2"/>
<polyline points="944.0,269.6 1000.0,302.0 1084.0,253.4" fill="none" stroke="#9fd3b0" stroke-width="1.2"/>
<polyline points="944.0,233.6 1000.0,266.0 1084.0,217.4" fill="none" stroke="#9fd3b0" stroke-width="1.2"/>
<line x1="1028.0" y1="429.8" x2="1028.0" y2="213.8" stroke="#9fd3b0" stroke-width="1.2"/>
<line x1="1056.0" y1="413.6" x2="1056.0" y2="197.6" stroke="#9fd3b0" stroke-width="1.2"/>
<line x1="972.0" y1="429.8" x2="972.0" y2="213.8" stroke="#9fd3b0" stroke-width="1.2"/>
<circle cx="1042.0" cy="259.7" r="5" fill="#22a055" class="blink"/><circle cx="1042.0" cy="259.7" r="11" fill="none" stroke="#22a055" stroke-width="1.5" opacity=".6"/>
<circle cx="972.0" cy="339.8" r="5" fill="#22a055" class="blink"/><circle cx="972.0" cy="339.8" r="11" fill="none" stroke="#22a055" stroke-width="1.5" opacity=".6"/>
<circle cx="1070.0" cy="351.5" r="5" fill="#22a055" class="blink"/><circle cx="1070.0" cy="351.5" r="11" fill="none" stroke="#22a055" stroke-width="1.5" opacity=".6"/>
<rect x="1050.0" y="272.0" width="44" height="34" fill="none" stroke="#e8590c" stroke-width="2" stroke-dasharray="5 3"/>
<g transform="translate(1128 186)" stroke="#1d2a22" stroke-width="2" fill="none"><path d="M-22 0h44M-14 8l-8 6M14 8l8 6"/><rect x="-9" y="-4" width="18" height="12" rx="3" fill="#fff"/><ellipse cx="-22" cy="-4" rx="12" ry="2.5"/><ellipse cx="22" cy="-4" rx="12" ry="2.5"/></g>
<path d="M1128 198 L1078 306 L1156 306 Z" fill="#22a055" opacity=".12"/>
</svg>